Coordinates
version=1
nRows=14
nColumns=42
inDegrees=yes

Units are S.I. units (second, meters, Newtons, ...)
If the header above contains a line with 'inDegrees', this indicates whether rotational values are in degrees (yes) or radians (no).

endheader
time	pelvis_tilt	pelvis_list	pelvis_rotation	pelvis_tx	pelvis_ty	pelvis_tz	hip_flexion_r	hip_adduction_r	hip_rotation_r	knee_angle_r	knee_adduction_r	knee_angle_r_beta	ankle_angle_r	subtalar_angle_r	mtp_angle_r	hip_flexion_l	hip_adduction_l	hip_rotation_l	knee_angle_l	knee_adduction_l	knee_angle_l_beta	ankle_angle_l	subtalar_angle_l	mtp_angle_l	lumbar_extension	lumbar_bending	lumbar_rotation	arm_flex_r	arm_add_r	arm_rot_r	elbow_flex_r	pro_sup_r	wrist_flex_r	wrist_dev_r	arm_flex_l	arm_add_l	arm_rot_l	elbow_flex_l	pro_sup_l	wrist_flex_l	wrist_dev_l
      0.81000000	      7.86490686	     -1.89722657	     -0.37022769	     -0.21550701	      0.86445150	     -0.29649505	    -28.90616540	      6.05924216	      1.00901767	      9.44360769	     -3.67495047	      0.16482205	     20.39072208	     14.25715530	     -7.59606894	     16.66879056	     -4.41921803	    -21.20462868	     10.60638804	      4.41536645	      0.18511639	      9.25134849	     13.16344086	     -7.59606894	    -18.50424123	     -1.29157983	      4.01893078	     -1.57943535	     -2.84721589	    -15.33167874	     58.32429514	     90.00000001	      0.00000000	      0.00000000	     -5.36364240	     -5.05897506	    -22.09316443	     35.86137366	     90.00000001	      0.00000000	      0.00000000
      0.82000000	      7.60113555	     -1.59426709	     -0.46937993	     -0.20312086	      0.86268130	     -0.29688395	    -28.97271526	      5.49019067	     -0.38637963	     10.48982488	     -3.50451031	      0.18308198	     20.64800702	     15.52011114	     -7.58864301	     17.04652492	     -3.76481506	    -21.31736802	     11.00602925	      4.04841405	      0.19209145	      9.30339097	     13.75841939	     -7.58864301	    -18.05736902	     -1.62500550	      4.02049604	     -1.58967621	     -2.81520287	    -15.33608759	     57.96619274	     90.00000001	      0.00000000	      0.00000000	     -5.46865511	     -5.03357377	    -22.87901465	     35.32778531	     90.00000001	      0.00000000	      0.00000000
      0.83000000	      7.22893170	     -1.41908515	     -0.54526043	     -0.19064162	      0.86084292	     -0.29712963	    -29.09988995	      5.15430848	     -0.85735327	     11.22626818	     -3.43884619	      0.19593534	     20.53762133	     15.60668661	     -7.58672866	     17.57602677	     -3.27446180	    -20.84479037	     11.81290842	      3.70696654	      0.20617415	      9.27450558	     13.36014405	     -7.58672866	    -17.49393973	     -1.83573735	      4.05461601	     -1.70125110	     -2.78379929	    -15.34522613	     57.69646857	     90.00000001	      0.00000000	      0.00000000	     -5.71982736	     -5.13957631	    -22.95681371	     35.02268871	     90.00000001	      0.00000000	      0.00000000
      0.84000000	      6.88871191	     -1.10920185	     -0.62452259	     -0.17801385	      0.85914805	     -0.29747707	    -29.20739660	      4.64942477	     -1.42779339	     12.08379646	     -3.34007703	      0.21090203	     20.36607660	     15.76003575	     -7.58512533	     18.09220086	     -2.58443844	    -20.26860774	     12.91016181	      3.13776487	      0.22532483	      9.13685741	     12.76623292	     -7.58512533	    -16.97210295	     -2.18782756	      4.08838219	     -1.85695751	     -2.73772096	    -15.41236432	     57.40502174	     90.00000001	      0.00000000	      0.00000000	     -5.94413757	     -5.24033673	    -23.13932669	     34.75882336	     90.00000001	      0.00000000	      0.00000000
      0.85000000	      6.58459693	     -0.69141527	     -0.72933691	     -0.16529381	      0.85762713	     -0.29786376	    -29.30301555	      3.99571308	     -2.09427075	     13.02457035	     -3.22312606	      0.22732164	     20.13040243	     15.95493910	     -7.58370336	     18.58927861	     -1.78668824	    -19.63340941	     14.27479689	      2.47601005	      0.24914221	      8.89284492	     12.03442720	     -7.58370336	    -16.50019598	     -2.66726853	      4.11772812	     -2.01195125	     -2.67228377	    -15.51003628	     57.09355170	     90.00000001	      0.00000000	      0.00000000	     -6.14971223	     -5.33957876	    -23.35882647	     34.53456830	     90.00000001	      0.00000000	      0.00000000
      0.86000000	      6.29068445	     -0.10306394	     -0.78978349	     -0.15229243	      0.85623987	     -0.29839708	    -29.32714676	      3.14111115	     -3.07001927	     14.14832376	     -3.05142836	      0.24693483	     19.85407615	     16.27191947	     -7.58207770	     19.11477618	     -0.81593626	    -19.08422276	     15.90337944	      1.73949307	      0.27756633	      8.56582337	     11.00522806	     -7.58207770	    -16.01454302	     -3.32165168	      4.08752391	     -2.24418742	     -2.57769511	    -15.67021901	     56.69811388	     90.00000001	      0.00000000	      0.00000000	     -6.36013026	     -5.42672507	    -23.65314057	     34.33686558	     90.00000001	      0.00000000	      0.00000000
      0.87000000	      6.07645219	      0.66115986	     -0.89105752	     -0.13928676	      0.85515877	     -0.29896842	    -29.30484629	      2.04302703	     -4.32974675	     15.51204598	     -2.91404911	      0.27073628	     19.57245004	     16.94048695	     -7.57999196	     19.57006799	      0.32326269	    -18.45114702	     17.66597676	      0.96740077	      0.30832946	      8.17728037	      9.66638034	     -7.57999196	    -15.64678550	     -4.18516050	      4.09305515	     -2.47675556	     -2.46920770	    -15.87695909	     56.25225463	     90.00000001	      0.00000000	      0.00000000	     -6.50059350	     -5.51628507	    -24.03627816	     34.23283450	     90.00000001	      0.00000000	      0.00000000
      0.88000000	      6.14374353	      1.96183503	     -1.00617256	     -0.12623325	      0.85464381	     -0.30009819	    -29.26155213	      0.11460914	     -7.02158281	     17.46603469	     -2.69605410	      0.30483981	     19.54880720	     19.94517062	     -7.57331089	     19.39238147	      2.20743756	    -16.84753661	     18.77981566	      0.46892648	      0.32776962	      7.29851706	      6.61304018	     -7.57331089	    -15.61533893	     -5.57513895	      3.92373614	     -2.66847171	     -2.34251185	    -16.06465145	     55.83271493	     90.00000001	      0.00000000	      0.00000000	     -6.59754683	     -5.56222483	    -24.70935714	     34.15561910	     90.00000001	      0.00000000	      0.00000000
      0.89000000	      6.04229335	      2.54150949	     -1.04961329	     -0.11324184	      0.85424421	     -0.30056596	    -29.28418682	     -0.74616633	     -7.45575658	     18.90213045	     -2.54443068	      0.32990441	     18.49240655	     19.55590400	     -7.57237875	     19.83428393	      2.98571998	    -16.13469186	     21.01783944	     -0.04653282	      0.36683050	      7.42887087	      5.43135542	     -7.57237875	    -15.42588248	     -6.24237903	      3.90412820	     -2.88011787	     -2.25260570	    -16.23113935	     55.29139989	     90.00000001	      0.00000000	      0.00000000	     -6.71817928	     -5.68794675	    -24.76111471	     34.04924475	     90.00000001	      0.00000000	      0.00000000
      0.90000000	      6.06560378	      3.16576516	     -1.13002440	     -0.10022743	      0.85423041	     -0.30098215	    -29.26105564	     -1.68780096	     -7.88494680	     20.64138572	     -2.44406965	      0.36026014	     17.35595686	     19.22981711	     -7.57141332	     20.04056130	      3.75289532	    -15.23028206	     23.15648838	     -0.29894763	      0.40415697	      7.71378231	      3.83952676	     -7.57141332	    -15.39178777	     -6.97082591	      3.91464310	     -3.09395201	     -2.15665735	    -16.44057697	     54.72725487	     90.00000001	      0.00000000	      0.00000000	     -6.81792208	     -5.79710929	    -24.86354074	     34.06711036	     90.00000001	      0.00000000	      0.00000000
      0.91000000	      6.22049616	      4.31009551	     -1.14599637	     -0.08745405	      0.85480631	     -0.30194132	    -29.09998229	     -3.29675137	     -9.02794255	     22.88370007	     -2.31279709	      0.39939591	     16.34993556	     19.85193311	     -7.56587474	     19.47123212	      5.32015414	    -12.01038245	     24.01159883	      0.47390282	      0.41908146	      6.67460552	     -2.14928417	     -7.56587474	    -15.56732534	     -8.20597703	      3.68756431	     -3.24379331	     -1.99086551	    -16.73096242	     54.12400857	     90.00000001	      0.00000000	      0.00000000	     -6.85955305	     -5.89190586	    -25.03963619	     34.18440810	     90.00000001	      0.00000000	      0.00000000
      0.92000000	      6.48693524	      4.78680607	     -1.30921170	     -0.07446916	      0.85554616	     -0.30220375	    -29.00706248	     -4.13702568	     -8.90930888	     25.04471980	     -2.25643417	      0.43711282	     14.73335504	     19.33556640	     -7.56496311	     19.12174858	      5.81087744	    -11.10302087	     25.74110607	      0.70893571	      0.44926705	      7.53653170	     -3.29960069	     -7.56496311	    -15.81290559	     -8.78551340	      3.77949768	     -3.45573432	     -1.95723978	    -16.84843233	     53.51301975	     90.00000001	      0.00000000	      0.00000000	     -6.89475333	     -5.95789146	    -25.06378694	     34.27627084	     90.00000001	      0.00000000	      0.00000000
      0.93000000	      6.75752791	      5.65630901	     -1.38309719	     -0.06184766	      0.85667609	     -0.30288284	    -28.66766606	     -5.43553031	     -8.87823954	     27.67431790	     -2.06309884	      0.48300797	     13.21739007	     18.65281477	     -7.55991443	     18.23040212	      6.90301623	     -8.64428451	     26.30764934	      1.67744626	      0.45915510	      7.10477396	     -7.69811104	     -7.55991443	    -16.14258381	     -9.73994859	      3.63441193	     -3.59412690	     -1.86528927	    -17.08012915	     52.85066404	     90.00000001	      0.00000000	      0.00000000	     -6.91949986	     -6.05736687	    -24.95216898	     34.49472051	     90.00000001	      0.00000000	      0.00000000
      0.94000000	      7.17049545	      6.00340097	     -1.57670361	     -0.04928884	      0.85797189	     -0.30308160	    -28.26828809	     -6.17480517	     -8.28862668	     30.45441072	     -2.02976149	      0.53152974	     11.46597947	     18.15628069	     -7.55912552	     17.30278093	      7.23270076	     -8.01811900	     27.21394277	      2.08728805	      0.47497290	      8.17163318	     -8.34984120	     -7.55912552	    -16.60762019	    -10.17193269	      3.70351725	     -3.74143085	     -1.86474854	    -17.17927242	     52.24567552	     90.00000001	      0.00000000	      0.00000000	     -6.90196716	     -6.06256792	    -24.93993159	     34.73048354	     90.00000001	      0.00000000	      0.00000000
